<?xml version="1.0" ?><svg viewBox="0 0 512 512" xmlns="http://www.w3.org/2000/svg"><g id="a"/><g id="b"/><g id="c"><g><path d="M493.04736,458.69824l5.90527-5.39648-176.46252-193.08618,2.88586-4.5437c2.60645-4.104,6.25635-7.47412,10.55615-9.74561l42.50684-22.45703c.16699-.08838,.32812-.18848,.48145-.2998l90.63525-65.79736c8.92383-6.47852,10.91357-19.00977,4.43506-27.93457-2.64642-3.64539-6.30908-6.11157-10.31732-7.33807l12.97894-9.42218c4.32275-3.13818,7.16504-7.77246,8.00293-13.04883,.8374-5.27588-.42969-10.5625-3.56836-14.88525-2.57983-3.55402-6.1795-6.08539-10.30688-7.34692l12.96802-9.41431c4.32324-3.13818,7.16553-7.77197,8.00342-13.04834,.83789-5.27588-.4292-10.5625-3.56787-14.88574-6.479-8.92383-19.00977-10.91357-27.93457-4.43506l-6.49371,4.71417c.07892-4.31488-1.21283-8.52167-3.79291-12.0755-3.13818-4.32275-7.77246-7.16504-13.04834-8.00293-5.27637-.8374-10.56299,.4292-14.88574,3.56787l-106.39014,77.23486-20.30566-36.85547c-.43628-.7915-.89996-1.57324-1.37219-2.34918,.50958-.44031,1.01282-.88611,1.52991-1.31976,1.43652-1.20459,1.84375-3.24561,.979-4.90918-4.89844-9.42822-13.17578-16.38428-23.30664-19.58691-10.13086-3.20312-20.90234-2.26855-30.33008,2.63086-11.08789,5.76074-20.13525,14.59033-26.16504,25.53467l-20.30566,36.85498L89.97168,23.81641c-8.92383-6.479-21.45508-4.48926-27.93408,4.43506-2.58008,3.55383-3.87183,7.76062-3.79291,12.0755l-6.49371-4.71417c-8.92432-6.479-21.45557-4.48877-27.93457,4.43506-3.13867,4.32324-4.40576,9.60986-3.56787,14.88574,.83789,5.27637,3.68018,9.91016,8.00293,13.04834l12.9682,9.41443c-4.12726,1.2616-7.72681,3.79279-10.30658,7.34631-3.13867,4.32324-4.40576,9.60986-3.56836,14.88574,.83789,5.27637,3.68018,9.91064,8.00293,13.04883l12.97888,9.42212c-4.00818,1.22675-7.67096,3.69318-10.31726,7.33862-6.47852,8.92432-4.48877,21.45557,4.43506,27.93408l90.63525,65.79736c.15332,.11133,.31396,.21143,.48145,.2998l42.50684,22.45703c4.2998,2.27148,7.94971,5.6416,10.55615,9.74561l2.88593,4.54395L13.04736,453.30176l5.90527,5.39648,175.00067-191.48633,57.30829,90.23193-86.63806,136.41162,6.75293,4.28906,84.6236-133.23987,84.62347,133.23987,6.75293-4.28906-107.03998-168.53473,68.35034-68.35034,184.36053,201.72784ZM288.32568,68.05664l22.49219,40.82373c.55371,1.00488,1.51221,1.72363,2.63184,1.97363,1.11963,.25098,2.29248,.00781,3.22168-.66699L426.72852,30.29004c2.59326-1.88281,5.76172-2.64355,8.93115-2.14062,3.16553,.50293,5.9458,2.20801,7.8291,4.80225,1.88281,2.59375,2.64307,5.76562,2.14062,8.93115-.50287,3.16571-2.20758,5.94562-4.80145,7.82898l-90.63556,65.79797,4.7002,6.47363,110.05664-79.89697c2.59375-1.88281,5.76758-2.64111,8.93115-2.14062,3.16602,.50293,5.94629,2.20801,7.82959,4.80225,1.88281,2.59375,2.64307,5.76562,2.14062,8.93115-.50293,3.16553-2.20801,5.9458-4.80225,7.8291l-116.53076,84.59668,4.7002,6.47363,90.63525-65.79736c2.59424-1.88232,5.76709-2.64258,8.93115-2.14062,3.16553,.50293,5.9458,2.20801,7.8291,4.80225,1.88281,2.59375,2.64307,5.76562,2.14062,8.93115-.50244,3.16602-2.20801,5.94629-4.80176,7.82959l-97.10938,70.49707,4.7002,6.47363,71.22522-51.7063c5.35516-3.8761,12.86414-2.6803,16.7489,2.66919,3.88672,5.35498,2.69287,12.87402-2.66162,16.76123l-90.40479,65.63037-42.25586,22.32422c-5.52783,2.92041-10.22119,7.25342-13.57178,12.52979l-1.72424,2.71478-55.47986-60.70636,1.729-1.89172c5.93896-6.49756,9.28516-14.92383,9.42188-23.72607l.0293-1.896c.31921-20.52502-3.91431-41.23199-12.23083-60.00586,6.76111-14.22449,16.04169-27.26239,27.56158-38.49243,.12939,.22705,.26996,.44928,.39581,.67749Zm-32.35889,48.18188c5.91742,15.76575,8.89502,32.70422,8.6333,49.51489l-.0293,1.896c-.10645,6.8457-2.70898,13.39941-7.32812,18.45312l-1.24243,1.3595-1.24292-1.35999c-4.61914-5.05322-7.22168-11.60693-7.32812-18.45264l-.0293-1.89648c-.26733-17.17157,2.70868-33.91919,8.56689-49.5144Zm-76.16162,122.6145l-42.25586-22.32422L47.14453,150.89844c-5.35449-3.88721-6.54834-11.40625-2.66162-16.76074,3.88635-5.35248,11.40015-6.54626,16.75311-2.66663l64.74689,47.00354,.00012-.00018,6.474,4.69989,4.7002-6.47363L40.04785,106.20361c-2.59375-1.8833-4.29932-4.66357-4.80176-7.82959-.50244-3.16553,.25781-6.3374,2.14062-8.93164,1.8833-2.59375,4.66357-4.29883,7.8291-4.80176,3.16846-.50195,6.33789,.2583,8.93115,2.14062l84.16113,61.09766,.00012-.00012,6.474,4.69983,4.7002-6.47363L32.95117,61.5083c-2.59375-1.8833-4.29883-4.66357-4.80176-7.8291-.50244-3.16553,.25781-6.3374,2.14062-8.93115,1.8833-2.59424,4.66357-4.29932,7.82959-4.80225,3.16748-.50049,6.3374,.25781,8.93115,2.14062l110.05664,79.89697,4.7002-6.47363L71.17206,49.71179c-2.59387-1.88336-4.29858-4.66327-4.80145-7.82898-.50244-3.16553,.25781-6.3374,2.14062-8.93115,1.8833-2.59424,4.66357-4.29932,7.8291-4.80225,3.1665-.50098,6.3374,.25781,8.93115,2.14062l110.05713,79.89697c.9292,.6748,2.10303,.91846,3.22168,.66699,1.11963-.25,2.07812-.96875,2.63184-1.97363l22.49219-40.82373c5.26514-9.55615,13.16504-17.26611,22.84668-22.29639,7.53076-3.91406,16.13623-4.66113,24.22998-2.10156,7.08887,2.24072,13.0415,6.78223,17.03955,12.93555-31.44678,27.64453-49.04395,67.28076-48.38965,109.2832l.0293,1.896c.13672,8.80225,3.48291,17.22852,9.42188,23.72559l23.87146,26.12024-61.64099,61.64099-17.70557-27.87744c-3.35059-5.27637-8.04395-9.60938-13.57178-12.52979Z"/><rect height="17.88854" transform="translate(76.26998 259.40742) rotate(-63.43495)" width="8.00006" x="243.99997" y="59.05573"/><path d="M96,252c2.90527,0,5.81982-.2417,8.66211-.71875l-1.32422-7.88965c-2.40576,.40381-4.875,.6084-7.33789,.6084-21.57861,0-39.82764-15.41846-43.3916-36.66162l-7.88965,1.32324c4.21289,25.11182,25.77979,43.33838,51.28125,43.33838Z"/><path d="M30.29639,241.33301c6.39893,18.10498,22.14648,31.15723,41.09717,34.06348l1.21289-7.90723c-16.03076-2.4585-29.35254-13.50244-34.76709-28.82227l-7.54297,2.66602Z"/><path d="M437.45898,207.33838c-3.56396,21.24316-21.8125,36.66162-43.39111,36.66162-2.46289,0-4.93213-.20459-7.33789-.6084l-1.32422,7.88965c2.84229,.47705,5.75684,.71875,8.66211,.71875,25.50098,0,47.06787-18.22656,51.28076-43.33838l-7.88965-1.32324Z"/><path d="M459.77148,241.33301l-7.54297-2.66602c-5.41455,15.31982-18.73633,26.36377-34.76709,28.82227l1.21289,7.90723c18.95068-2.90625,34.69824-15.9585,41.09717-34.06348Z"/></g></g><g id="d"/></svg>